<mxfile host="app.diagrams.net" modified="2024-02-20T03:30:54.874Z" agent="Mozilla/5.0 (Macintosh; Intel Mac OS X 10_15_7) AppleWebKit/537.36 (KHTML, like Gecko) Chrome/121.0.0.0 Safari/537.36" etag="b4M-s3nz9LH00AZtRNdH" version="23.1.5" type="github">
  <diagram id="R2lEEEUBdFMjLlhIrx00" name="Page-1">
    <mxGraphModel dx="1983" dy="1051" grid="0" gridSize="10" guides="1" tooltips="1" connect="1" arrows="1" fold="1" page="0" pageScale="1" pageWidth="850" pageHeight="1100" math="0" shadow="0" extFonts="Permanent Marker^https://fonts.googleapis.com/css?family=Permanent+Marker">
      <root>
        <mxCell id="0" />
        <mxCell id="1" parent="0" />
        <mxCell id="kHURLvQLniu8-LGdCGiE-3" value="Customer" style="shape=table;startSize=30;container=1;collapsible=1;childLayout=tableLayout;fixedRows=1;rowLines=0;fontStyle=1;align=center;resizeLast=1;html=1;fillColor=#dae8fc;strokeColor=#6c8ebf;gradientColor=none;swimlaneFillColor=default;swimlaneBody=1;" vertex="1" parent="1">
          <mxGeometry x="-110" y="-40" width="140" height="150" as="geometry" />
        </mxCell>
        <mxCell id="kHURLvQLniu8-LGdCGiE-4" value="" style="shape=tableRow;horizontal=0;startSize=0;swimlaneHead=0;swimlaneBody=0;fillColor=none;collapsible=0;dropTarget=0;points=[[0,0.5],[1,0.5]];portConstraint=eastwest;top=0;left=0;right=0;bottom=1;strokeColor=inherit;swimlaneLine=0;strokeWidth=0;" vertex="1" parent="kHURLvQLniu8-LGdCGiE-3">
          <mxGeometry y="30" width="140" height="30" as="geometry" />
        </mxCell>
        <mxCell id="kHURLvQLniu8-LGdCGiE-5" value="PK" style="shape=partialRectangle;connectable=0;fillColor=#dae8fc;top=0;left=0;bottom=0;right=0;fontStyle=0;overflow=hidden;whiteSpace=wrap;html=1;strokeWidth=0;strokeColor=#6c8ebf;" vertex="1" parent="kHURLvQLniu8-LGdCGiE-4">
          <mxGeometry width="30" height="30" as="geometry">
            <mxRectangle width="30" height="30" as="alternateBounds" />
          </mxGeometry>
        </mxCell>
        <mxCell id="kHURLvQLniu8-LGdCGiE-6" value="CustomerID" style="shape=partialRectangle;connectable=0;fillColor=#dae8fc;top=0;left=0;bottom=0;right=0;align=left;spacingLeft=6;fontStyle=4;overflow=hidden;whiteSpace=wrap;html=1;strokeColor=#6c8ebf;" vertex="1" parent="kHURLvQLniu8-LGdCGiE-4">
          <mxGeometry x="30" width="110" height="30" as="geometry">
            <mxRectangle width="110" height="30" as="alternateBounds" />
          </mxGeometry>
        </mxCell>
        <mxCell id="kHURLvQLniu8-LGdCGiE-7" value="" style="shape=tableRow;horizontal=0;startSize=0;swimlaneHead=0;swimlaneBody=0;fillColor=none;collapsible=0;dropTarget=0;points=[[0,0.5],[1,0.5]];portConstraint=eastwest;top=0;left=0;right=0;bottom=0;" vertex="1" parent="kHURLvQLniu8-LGdCGiE-3">
          <mxGeometry y="60" width="140" height="30" as="geometry" />
        </mxCell>
        <mxCell id="kHURLvQLniu8-LGdCGiE-8" value="" style="shape=partialRectangle;connectable=0;fillColor=#dae8fc;top=0;left=0;bottom=0;right=0;editable=1;overflow=hidden;whiteSpace=wrap;html=1;strokeColor=#6c8ebf;" vertex="1" parent="kHURLvQLniu8-LGdCGiE-7">
          <mxGeometry width="30" height="30" as="geometry">
            <mxRectangle width="30" height="30" as="alternateBounds" />
          </mxGeometry>
        </mxCell>
        <mxCell id="kHURLvQLniu8-LGdCGiE-9" value="Name" style="shape=partialRectangle;connectable=0;fillColor=#dae8fc;top=0;left=0;bottom=0;right=0;align=left;spacingLeft=6;overflow=hidden;whiteSpace=wrap;html=1;strokeColor=#6c8ebf;" vertex="1" parent="kHURLvQLniu8-LGdCGiE-7">
          <mxGeometry x="30" width="110" height="30" as="geometry">
            <mxRectangle width="110" height="30" as="alternateBounds" />
          </mxGeometry>
        </mxCell>
        <mxCell id="kHURLvQLniu8-LGdCGiE-10" value="" style="shape=tableRow;horizontal=0;startSize=0;swimlaneHead=0;swimlaneBody=0;fillColor=none;collapsible=0;dropTarget=0;points=[[0,0.5],[1,0.5]];portConstraint=eastwest;top=0;left=0;right=0;bottom=0;" vertex="1" parent="kHURLvQLniu8-LGdCGiE-3">
          <mxGeometry y="90" width="140" height="30" as="geometry" />
        </mxCell>
        <mxCell id="kHURLvQLniu8-LGdCGiE-11" value="" style="shape=partialRectangle;connectable=0;fillColor=#dae8fc;top=0;left=0;bottom=0;right=0;editable=1;overflow=hidden;whiteSpace=wrap;html=1;strokeColor=#6c8ebf;" vertex="1" parent="kHURLvQLniu8-LGdCGiE-10">
          <mxGeometry width="30" height="30" as="geometry">
            <mxRectangle width="30" height="30" as="alternateBounds" />
          </mxGeometry>
        </mxCell>
        <mxCell id="kHURLvQLniu8-LGdCGiE-12" value="ContactNumber" style="shape=partialRectangle;connectable=0;fillColor=#dae8fc;top=0;left=0;bottom=0;right=0;align=left;spacingLeft=6;overflow=hidden;whiteSpace=wrap;html=1;strokeColor=#6c8ebf;" vertex="1" parent="kHURLvQLniu8-LGdCGiE-10">
          <mxGeometry x="30" width="110" height="30" as="geometry">
            <mxRectangle width="110" height="30" as="alternateBounds" />
          </mxGeometry>
        </mxCell>
        <mxCell id="kHURLvQLniu8-LGdCGiE-13" value="" style="shape=tableRow;horizontal=0;startSize=0;swimlaneHead=0;swimlaneBody=0;fillColor=none;collapsible=0;dropTarget=0;points=[[0,0.5],[1,0.5]];portConstraint=eastwest;top=0;left=0;right=0;bottom=0;" vertex="1" parent="kHURLvQLniu8-LGdCGiE-3">
          <mxGeometry y="120" width="140" height="30" as="geometry" />
        </mxCell>
        <mxCell id="kHURLvQLniu8-LGdCGiE-14" value="" style="shape=partialRectangle;connectable=0;fillColor=#dae8fc;top=0;left=0;bottom=0;right=0;editable=1;overflow=hidden;whiteSpace=wrap;html=1;strokeColor=#6c8ebf;" vertex="1" parent="kHURLvQLniu8-LGdCGiE-13">
          <mxGeometry width="30" height="30" as="geometry">
            <mxRectangle width="30" height="30" as="alternateBounds" />
          </mxGeometry>
        </mxCell>
        <mxCell id="kHURLvQLniu8-LGdCGiE-15" value="Email" style="shape=partialRectangle;connectable=0;fillColor=#dae8fc;top=0;left=0;bottom=0;right=0;align=left;spacingLeft=6;overflow=hidden;whiteSpace=wrap;html=1;strokeColor=#6c8ebf;" vertex="1" parent="kHURLvQLniu8-LGdCGiE-13">
          <mxGeometry x="30" width="110" height="30" as="geometry">
            <mxRectangle width="110" height="30" as="alternateBounds" />
          </mxGeometry>
        </mxCell>
        <mxCell id="kHURLvQLniu8-LGdCGiE-27" value="&lt;span style=&quot;font-weight: normal;&quot;&gt;have&lt;/span&gt;" style="rhombus;whiteSpace=wrap;html=1;startSize=30;fontStyle=1;" vertex="1" parent="1">
          <mxGeometry x="-71" y="180" width="63" height="60" as="geometry" />
        </mxCell>
        <mxCell id="kHURLvQLniu8-LGdCGiE-31" value="" style="fontSize=12;html=1;endArrow=ERone;endFill=1;rounded=0;exitX=0.5;exitY=0;exitDx=0;exitDy=0;entryX=0.5;entryY=1;entryDx=0;entryDy=0;" edge="1" parent="1" source="kHURLvQLniu8-LGdCGiE-27" target="kHURLvQLniu8-LGdCGiE-3">
          <mxGeometry width="100" height="100" relative="1" as="geometry">
            <mxPoint x="-40" y="110" as="sourcePoint" />
            <mxPoint x="-94" y="164" as="targetPoint" />
          </mxGeometry>
        </mxCell>
        <mxCell id="kHURLvQLniu8-LGdCGiE-32" value="Rental" style="shape=table;startSize=30;container=1;collapsible=1;childLayout=tableLayout;fixedRows=1;rowLines=0;fontStyle=1;align=center;resizeLast=1;html=1;fillColor=#dae8fc;strokeColor=#6c8ebf;" vertex="1" parent="1">
          <mxGeometry x="-110" y="300" width="140" height="150" as="geometry" />
        </mxCell>
        <mxCell id="kHURLvQLniu8-LGdCGiE-33" value="" style="shape=tableRow;horizontal=0;startSize=0;swimlaneHead=0;swimlaneBody=0;fillColor=none;collapsible=0;dropTarget=0;points=[[0,0.5],[1,0.5]];portConstraint=eastwest;top=0;left=0;right=0;bottom=1;strokeColor=inherit;swimlaneLine=0;strokeWidth=0;" vertex="1" parent="kHURLvQLniu8-LGdCGiE-32">
          <mxGeometry y="30" width="140" height="30" as="geometry" />
        </mxCell>
        <mxCell id="kHURLvQLniu8-LGdCGiE-34" value="PK" style="shape=partialRectangle;connectable=0;fillColor=#dae8fc;top=0;left=0;bottom=0;right=0;fontStyle=0;overflow=hidden;whiteSpace=wrap;html=1;strokeWidth=0;strokeColor=#6c8ebf;" vertex="1" parent="kHURLvQLniu8-LGdCGiE-33">
          <mxGeometry width="30" height="30" as="geometry">
            <mxRectangle width="30" height="30" as="alternateBounds" />
          </mxGeometry>
        </mxCell>
        <mxCell id="kHURLvQLniu8-LGdCGiE-35" value="RentalID" style="shape=partialRectangle;connectable=0;fillColor=#dae8fc;top=0;left=0;bottom=0;right=0;align=left;spacingLeft=6;fontStyle=4;overflow=hidden;whiteSpace=wrap;html=1;strokeColor=#6c8ebf;" vertex="1" parent="kHURLvQLniu8-LGdCGiE-33">
          <mxGeometry x="30" width="110" height="30" as="geometry">
            <mxRectangle width="110" height="30" as="alternateBounds" />
          </mxGeometry>
        </mxCell>
        <mxCell id="kHURLvQLniu8-LGdCGiE-36" value="" style="shape=tableRow;horizontal=0;startSize=0;swimlaneHead=0;swimlaneBody=0;fillColor=none;collapsible=0;dropTarget=0;points=[[0,0.5],[1,0.5]];portConstraint=eastwest;top=0;left=0;right=0;bottom=0;" vertex="1" parent="kHURLvQLniu8-LGdCGiE-32">
          <mxGeometry y="60" width="140" height="30" as="geometry" />
        </mxCell>
        <mxCell id="kHURLvQLniu8-LGdCGiE-37" value="" style="shape=partialRectangle;connectable=0;fillColor=#dae8fc;top=0;left=0;bottom=0;right=0;editable=1;overflow=hidden;whiteSpace=wrap;html=1;strokeColor=#6c8ebf;" vertex="1" parent="kHURLvQLniu8-LGdCGiE-36">
          <mxGeometry width="30" height="30" as="geometry">
            <mxRectangle width="30" height="30" as="alternateBounds" />
          </mxGeometry>
        </mxCell>
        <mxCell id="kHURLvQLniu8-LGdCGiE-38" value="RentalDate" style="shape=partialRectangle;connectable=0;fillColor=#dae8fc;top=0;left=0;bottom=0;right=0;align=left;spacingLeft=6;overflow=hidden;whiteSpace=wrap;html=1;strokeColor=#6c8ebf;" vertex="1" parent="kHURLvQLniu8-LGdCGiE-36">
          <mxGeometry x="30" width="110" height="30" as="geometry">
            <mxRectangle width="110" height="30" as="alternateBounds" />
          </mxGeometry>
        </mxCell>
        <mxCell id="kHURLvQLniu8-LGdCGiE-39" value="" style="shape=tableRow;horizontal=0;startSize=0;swimlaneHead=0;swimlaneBody=0;fillColor=none;collapsible=0;dropTarget=0;points=[[0,0.5],[1,0.5]];portConstraint=eastwest;top=0;left=0;right=0;bottom=0;" vertex="1" parent="kHURLvQLniu8-LGdCGiE-32">
          <mxGeometry y="90" width="140" height="30" as="geometry" />
        </mxCell>
        <mxCell id="kHURLvQLniu8-LGdCGiE-40" value="" style="shape=partialRectangle;connectable=0;fillColor=#dae8fc;top=0;left=0;bottom=0;right=0;editable=1;overflow=hidden;whiteSpace=wrap;html=1;strokeColor=#6c8ebf;" vertex="1" parent="kHURLvQLniu8-LGdCGiE-39">
          <mxGeometry width="30" height="30" as="geometry">
            <mxRectangle width="30" height="30" as="alternateBounds" />
          </mxGeometry>
        </mxCell>
        <mxCell id="kHURLvQLniu8-LGdCGiE-41" value="ReturnDate" style="shape=partialRectangle;connectable=0;fillColor=#dae8fc;top=0;left=0;bottom=0;right=0;align=left;spacingLeft=6;overflow=hidden;whiteSpace=wrap;html=1;strokeColor=#6c8ebf;" vertex="1" parent="kHURLvQLniu8-LGdCGiE-39">
          <mxGeometry x="30" width="110" height="30" as="geometry">
            <mxRectangle width="110" height="30" as="alternateBounds" />
          </mxGeometry>
        </mxCell>
        <mxCell id="kHURLvQLniu8-LGdCGiE-42" value="" style="shape=tableRow;horizontal=0;startSize=0;swimlaneHead=0;swimlaneBody=0;fillColor=none;collapsible=0;dropTarget=0;points=[[0,0.5],[1,0.5]];portConstraint=eastwest;top=0;left=0;right=0;bottom=0;" vertex="1" parent="kHURLvQLniu8-LGdCGiE-32">
          <mxGeometry y="120" width="140" height="30" as="geometry" />
        </mxCell>
        <mxCell id="kHURLvQLniu8-LGdCGiE-43" value="" style="shape=partialRectangle;connectable=0;fillColor=#dae8fc;top=0;left=0;bottom=0;right=0;editable=1;overflow=hidden;whiteSpace=wrap;html=1;strokeColor=#6c8ebf;" vertex="1" parent="kHURLvQLniu8-LGdCGiE-42">
          <mxGeometry width="30" height="30" as="geometry">
            <mxRectangle width="30" height="30" as="alternateBounds" />
          </mxGeometry>
        </mxCell>
        <mxCell id="kHURLvQLniu8-LGdCGiE-44" value="TotalCost" style="shape=partialRectangle;connectable=0;fillColor=#dae8fc;top=0;left=0;bottom=0;right=0;align=left;spacingLeft=6;overflow=hidden;whiteSpace=wrap;html=1;strokeColor=#6c8ebf;" vertex="1" parent="kHURLvQLniu8-LGdCGiE-42">
          <mxGeometry x="30" width="110" height="30" as="geometry">
            <mxRectangle width="110" height="30" as="alternateBounds" />
          </mxGeometry>
        </mxCell>
        <mxCell id="kHURLvQLniu8-LGdCGiE-58" value="Employee" style="shape=table;startSize=30;container=1;collapsible=1;childLayout=tableLayout;fixedRows=1;rowLines=0;fontStyle=1;align=center;resizeLast=1;html=1;fillColor=#dae8fc;strokeColor=#6c8ebf;" vertex="1" parent="1">
          <mxGeometry x="271" y="-45" width="140" height="120" as="geometry" />
        </mxCell>
        <mxCell id="kHURLvQLniu8-LGdCGiE-59" value="" style="shape=tableRow;horizontal=0;startSize=0;swimlaneHead=0;swimlaneBody=0;fillColor=none;collapsible=0;dropTarget=0;points=[[0,0.5],[1,0.5]];portConstraint=eastwest;top=0;left=0;right=0;bottom=1;strokeColor=inherit;swimlaneLine=0;strokeWidth=0;" vertex="1" parent="kHURLvQLniu8-LGdCGiE-58">
          <mxGeometry y="30" width="140" height="30" as="geometry" />
        </mxCell>
        <mxCell id="kHURLvQLniu8-LGdCGiE-60" value="PK" style="shape=partialRectangle;connectable=0;fillColor=#dae8fc;top=0;left=0;bottom=0;right=0;fontStyle=0;overflow=hidden;whiteSpace=wrap;html=1;strokeWidth=0;strokeColor=#6c8ebf;" vertex="1" parent="kHURLvQLniu8-LGdCGiE-59">
          <mxGeometry width="30" height="30" as="geometry">
            <mxRectangle width="30" height="30" as="alternateBounds" />
          </mxGeometry>
        </mxCell>
        <mxCell id="kHURLvQLniu8-LGdCGiE-61" value="EmployeeID" style="shape=partialRectangle;connectable=0;fillColor=#dae8fc;top=0;left=0;bottom=0;right=0;align=left;spacingLeft=6;fontStyle=4;overflow=hidden;whiteSpace=wrap;html=1;strokeColor=#6c8ebf;" vertex="1" parent="kHURLvQLniu8-LGdCGiE-59">
          <mxGeometry x="30" width="110" height="30" as="geometry">
            <mxRectangle width="110" height="30" as="alternateBounds" />
          </mxGeometry>
        </mxCell>
        <mxCell id="kHURLvQLniu8-LGdCGiE-62" value="" style="shape=tableRow;horizontal=0;startSize=0;swimlaneHead=0;swimlaneBody=0;fillColor=none;collapsible=0;dropTarget=0;points=[[0,0.5],[1,0.5]];portConstraint=eastwest;top=0;left=0;right=0;bottom=0;" vertex="1" parent="kHURLvQLniu8-LGdCGiE-58">
          <mxGeometry y="60" width="140" height="30" as="geometry" />
        </mxCell>
        <mxCell id="kHURLvQLniu8-LGdCGiE-63" value="" style="shape=partialRectangle;connectable=0;fillColor=#dae8fc;top=0;left=0;bottom=0;right=0;editable=1;overflow=hidden;whiteSpace=wrap;html=1;strokeColor=#6c8ebf;" vertex="1" parent="kHURLvQLniu8-LGdCGiE-62">
          <mxGeometry width="30" height="30" as="geometry">
            <mxRectangle width="30" height="30" as="alternateBounds" />
          </mxGeometry>
        </mxCell>
        <mxCell id="kHURLvQLniu8-LGdCGiE-64" value="Name" style="shape=partialRectangle;connectable=0;fillColor=#dae8fc;top=0;left=0;bottom=0;right=0;align=left;spacingLeft=6;overflow=hidden;whiteSpace=wrap;html=1;strokeColor=#6c8ebf;" vertex="1" parent="kHURLvQLniu8-LGdCGiE-62">
          <mxGeometry x="30" width="110" height="30" as="geometry">
            <mxRectangle width="110" height="30" as="alternateBounds" />
          </mxGeometry>
        </mxCell>
        <mxCell id="kHURLvQLniu8-LGdCGiE-65" value="" style="shape=tableRow;horizontal=0;startSize=0;swimlaneHead=0;swimlaneBody=0;fillColor=none;collapsible=0;dropTarget=0;points=[[0,0.5],[1,0.5]];portConstraint=eastwest;top=0;left=0;right=0;bottom=0;" vertex="1" parent="kHURLvQLniu8-LGdCGiE-58">
          <mxGeometry y="90" width="140" height="30" as="geometry" />
        </mxCell>
        <mxCell id="kHURLvQLniu8-LGdCGiE-66" value="" style="shape=partialRectangle;connectable=0;fillColor=#dae8fc;top=0;left=0;bottom=0;right=0;editable=1;overflow=hidden;whiteSpace=wrap;html=1;strokeColor=#6c8ebf;" vertex="1" parent="kHURLvQLniu8-LGdCGiE-65">
          <mxGeometry width="30" height="30" as="geometry">
            <mxRectangle width="30" height="30" as="alternateBounds" />
          </mxGeometry>
        </mxCell>
        <mxCell id="kHURLvQLniu8-LGdCGiE-67" value="Position" style="shape=partialRectangle;connectable=0;fillColor=#dae8fc;top=0;left=0;bottom=0;right=0;align=left;spacingLeft=6;overflow=hidden;whiteSpace=wrap;html=1;strokeColor=#6c8ebf;" vertex="1" parent="kHURLvQLniu8-LGdCGiE-65">
          <mxGeometry x="30" width="110" height="30" as="geometry">
            <mxRectangle width="110" height="30" as="alternateBounds" />
          </mxGeometry>
        </mxCell>
        <mxCell id="kHURLvQLniu8-LGdCGiE-71" value="Payment" style="shape=table;startSize=30;container=1;collapsible=1;childLayout=tableLayout;fixedRows=1;rowLines=0;fontStyle=1;align=center;resizeLast=1;html=1;fillColor=#dae8fc;strokeColor=#6c8ebf;" vertex="1" parent="1">
          <mxGeometry x="-415" y="315" width="140" height="120" as="geometry" />
        </mxCell>
        <mxCell id="kHURLvQLniu8-LGdCGiE-72" value="" style="shape=tableRow;horizontal=0;startSize=0;swimlaneHead=0;swimlaneBody=0;fillColor=none;collapsible=0;dropTarget=0;points=[[0,0.5],[1,0.5]];portConstraint=eastwest;top=0;left=0;right=0;bottom=1;strokeColor=inherit;swimlaneLine=0;strokeWidth=0;" vertex="1" parent="kHURLvQLniu8-LGdCGiE-71">
          <mxGeometry y="30" width="140" height="30" as="geometry" />
        </mxCell>
        <mxCell id="kHURLvQLniu8-LGdCGiE-73" value="PK" style="shape=partialRectangle;connectable=0;fillColor=#dae8fc;top=0;left=0;bottom=0;right=0;fontStyle=0;overflow=hidden;whiteSpace=wrap;html=1;strokeWidth=0;strokeColor=#6c8ebf;" vertex="1" parent="kHURLvQLniu8-LGdCGiE-72">
          <mxGeometry width="30" height="30" as="geometry">
            <mxRectangle width="30" height="30" as="alternateBounds" />
          </mxGeometry>
        </mxCell>
        <mxCell id="kHURLvQLniu8-LGdCGiE-74" value="PaymentID" style="shape=partialRectangle;connectable=0;fillColor=#dae8fc;top=0;left=0;bottom=0;right=0;align=left;spacingLeft=6;fontStyle=4;overflow=hidden;whiteSpace=wrap;html=1;strokeColor=#6c8ebf;" vertex="1" parent="kHURLvQLniu8-LGdCGiE-72">
          <mxGeometry x="30" width="110" height="30" as="geometry">
            <mxRectangle width="110" height="30" as="alternateBounds" />
          </mxGeometry>
        </mxCell>
        <mxCell id="kHURLvQLniu8-LGdCGiE-75" value="" style="shape=tableRow;horizontal=0;startSize=0;swimlaneHead=0;swimlaneBody=0;fillColor=none;collapsible=0;dropTarget=0;points=[[0,0.5],[1,0.5]];portConstraint=eastwest;top=0;left=0;right=0;bottom=0;" vertex="1" parent="kHURLvQLniu8-LGdCGiE-71">
          <mxGeometry y="60" width="140" height="30" as="geometry" />
        </mxCell>
        <mxCell id="kHURLvQLniu8-LGdCGiE-76" value="" style="shape=partialRectangle;connectable=0;fillColor=#dae8fc;top=0;left=0;bottom=0;right=0;editable=1;overflow=hidden;whiteSpace=wrap;html=1;strokeColor=#6c8ebf;" vertex="1" parent="kHURLvQLniu8-LGdCGiE-75">
          <mxGeometry width="30" height="30" as="geometry">
            <mxRectangle width="30" height="30" as="alternateBounds" />
          </mxGeometry>
        </mxCell>
        <mxCell id="kHURLvQLniu8-LGdCGiE-77" value="PaymentDate" style="shape=partialRectangle;connectable=0;fillColor=#dae8fc;top=0;left=0;bottom=0;right=0;align=left;spacingLeft=6;overflow=hidden;whiteSpace=wrap;html=1;strokeColor=#6c8ebf;" vertex="1" parent="kHURLvQLniu8-LGdCGiE-75">
          <mxGeometry x="30" width="110" height="30" as="geometry">
            <mxRectangle width="110" height="30" as="alternateBounds" />
          </mxGeometry>
        </mxCell>
        <mxCell id="kHURLvQLniu8-LGdCGiE-78" value="" style="shape=tableRow;horizontal=0;startSize=0;swimlaneHead=0;swimlaneBody=0;fillColor=none;collapsible=0;dropTarget=0;points=[[0,0.5],[1,0.5]];portConstraint=eastwest;top=0;left=0;right=0;bottom=0;" vertex="1" parent="kHURLvQLniu8-LGdCGiE-71">
          <mxGeometry y="90" width="140" height="30" as="geometry" />
        </mxCell>
        <mxCell id="kHURLvQLniu8-LGdCGiE-79" value="" style="shape=partialRectangle;connectable=0;fillColor=#dae8fc;top=0;left=0;bottom=0;right=0;editable=1;overflow=hidden;whiteSpace=wrap;html=1;strokeColor=#6c8ebf;" vertex="1" parent="kHURLvQLniu8-LGdCGiE-78">
          <mxGeometry width="30" height="30" as="geometry">
            <mxRectangle width="30" height="30" as="alternateBounds" />
          </mxGeometry>
        </mxCell>
        <mxCell id="kHURLvQLniu8-LGdCGiE-80" value="Amount" style="shape=partialRectangle;connectable=0;fillColor=#dae8fc;top=0;left=0;bottom=0;right=0;align=left;spacingLeft=6;overflow=hidden;whiteSpace=wrap;html=1;strokeColor=#6c8ebf;" vertex="1" parent="kHURLvQLniu8-LGdCGiE-78">
          <mxGeometry x="30" width="110" height="30" as="geometry">
            <mxRectangle width="110" height="30" as="alternateBounds" />
          </mxGeometry>
        </mxCell>
        <mxCell id="kHURLvQLniu8-LGdCGiE-89" value="&lt;span style=&quot;font-weight: normal;&quot;&gt;process&lt;/span&gt;" style="rhombus;whiteSpace=wrap;html=1;startSize=30;fontStyle=1;" vertex="1" parent="1">
          <mxGeometry x="188" y="180" width="60" height="58" as="geometry" />
        </mxCell>
        <mxCell id="kHURLvQLniu8-LGdCGiE-90" value="&lt;span style=&quot;font-weight: normal;&quot;&gt;manages&lt;/span&gt;" style="rhombus;whiteSpace=wrap;html=1;startSize=30;fontStyle=1;" vertex="1" parent="1">
          <mxGeometry x="375" y="180" width="69" height="66" as="geometry" />
        </mxCell>
        <mxCell id="kHURLvQLniu8-LGdCGiE-91" value="" style="edgeStyle=elbowEdgeStyle;fontSize=12;html=1;endArrow=ERzeroToOne;endFill=1;rounded=0;elbow=vertical;exitX=0.5;exitY=0;exitDx=0;exitDy=0;entryX=0.102;entryY=0.967;entryDx=0;entryDy=0;entryPerimeter=0;" edge="1" parent="1" source="kHURLvQLniu8-LGdCGiE-90" target="kHURLvQLniu8-LGdCGiE-65">
          <mxGeometry width="100" height="100" relative="1" as="geometry">
            <mxPoint x="399" y="174" as="sourcePoint" />
            <mxPoint x="344" y="80" as="targetPoint" />
          </mxGeometry>
        </mxCell>
        <mxCell id="kHURLvQLniu8-LGdCGiE-92" value="" style="edgeStyle=elbowEdgeStyle;fontSize=12;html=1;endArrow=ERone;endFill=1;rounded=0;exitX=0.5;exitY=0;exitDx=0;exitDy=0;entryX=0.021;entryY=0.533;entryDx=0;entryDy=0;entryPerimeter=0;" edge="1" parent="1" source="kHURLvQLniu8-LGdCGiE-89" target="kHURLvQLniu8-LGdCGiE-65">
          <mxGeometry width="100" height="100" relative="1" as="geometry">
            <mxPoint x="165" y="180" as="sourcePoint" />
            <mxPoint x="268" y="62" as="targetPoint" />
            <Array as="points">
              <mxPoint x="218" y="123" />
            </Array>
          </mxGeometry>
        </mxCell>
        <mxCell id="kHURLvQLniu8-LGdCGiE-93" value="Branch" style="shape=table;startSize=30;container=1;collapsible=1;childLayout=tableLayout;fixedRows=1;rowLines=0;fontStyle=1;align=center;resizeLast=1;html=1;fillColor=#dae8fc;strokeColor=#6c8ebf;" vertex="1" parent="1">
          <mxGeometry x="339.5" y="322" width="140" height="90" as="geometry" />
        </mxCell>
        <mxCell id="kHURLvQLniu8-LGdCGiE-94" value="" style="shape=tableRow;horizontal=0;startSize=0;swimlaneHead=0;swimlaneBody=0;fillColor=none;collapsible=0;dropTarget=0;points=[[0,0.5],[1,0.5]];portConstraint=eastwest;top=0;left=0;right=0;bottom=1;strokeColor=inherit;swimlaneLine=0;strokeWidth=0;" vertex="1" parent="kHURLvQLniu8-LGdCGiE-93">
          <mxGeometry y="30" width="140" height="30" as="geometry" />
        </mxCell>
        <mxCell id="kHURLvQLniu8-LGdCGiE-95" value="PK" style="shape=partialRectangle;connectable=0;fillColor=#dae8fc;top=0;left=0;bottom=0;right=0;fontStyle=0;overflow=hidden;whiteSpace=wrap;html=1;strokeWidth=0;strokeColor=#6c8ebf;" vertex="1" parent="kHURLvQLniu8-LGdCGiE-94">
          <mxGeometry width="30" height="30" as="geometry">
            <mxRectangle width="30" height="30" as="alternateBounds" />
          </mxGeometry>
        </mxCell>
        <mxCell id="kHURLvQLniu8-LGdCGiE-96" value="BranchID" style="shape=partialRectangle;connectable=0;fillColor=#dae8fc;top=0;left=0;bottom=0;right=0;align=left;spacingLeft=6;fontStyle=4;overflow=hidden;whiteSpace=wrap;html=1;strokeColor=#6c8ebf;" vertex="1" parent="kHURLvQLniu8-LGdCGiE-94">
          <mxGeometry x="30" width="110" height="30" as="geometry">
            <mxRectangle width="110" height="30" as="alternateBounds" />
          </mxGeometry>
        </mxCell>
        <mxCell id="kHURLvQLniu8-LGdCGiE-97" value="" style="shape=tableRow;horizontal=0;startSize=0;swimlaneHead=0;swimlaneBody=0;fillColor=none;collapsible=0;dropTarget=0;points=[[0,0.5],[1,0.5]];portConstraint=eastwest;top=0;left=0;right=0;bottom=0;" vertex="1" parent="kHURLvQLniu8-LGdCGiE-93">
          <mxGeometry y="60" width="140" height="30" as="geometry" />
        </mxCell>
        <mxCell id="kHURLvQLniu8-LGdCGiE-98" value="" style="shape=partialRectangle;connectable=0;fillColor=#dae8fc;top=0;left=0;bottom=0;right=0;editable=1;overflow=hidden;whiteSpace=wrap;html=1;strokeColor=#6c8ebf;" vertex="1" parent="kHURLvQLniu8-LGdCGiE-97">
          <mxGeometry width="30" height="30" as="geometry">
            <mxRectangle width="30" height="30" as="alternateBounds" />
          </mxGeometry>
        </mxCell>
        <mxCell id="kHURLvQLniu8-LGdCGiE-99" value="Location" style="shape=partialRectangle;connectable=0;fillColor=#dae8fc;top=0;left=0;bottom=0;right=0;align=left;spacingLeft=6;overflow=hidden;whiteSpace=wrap;html=1;strokeColor=#6c8ebf;" vertex="1" parent="kHURLvQLniu8-LGdCGiE-97">
          <mxGeometry x="30" width="110" height="30" as="geometry">
            <mxRectangle width="110" height="30" as="alternateBounds" />
          </mxGeometry>
        </mxCell>
        <mxCell id="kHURLvQLniu8-LGdCGiE-103" value="" style="fontSize=12;html=1;endArrow=ERmany;rounded=0;exitX=0.5;exitY=1;exitDx=0;exitDy=0;entryX=0.5;entryY=0;entryDx=0;entryDy=0;" edge="1" parent="1" source="kHURLvQLniu8-LGdCGiE-90" target="kHURLvQLniu8-LGdCGiE-93">
          <mxGeometry width="100" height="100" relative="1" as="geometry">
            <mxPoint x="373" y="415" as="sourcePoint" />
            <mxPoint x="473" y="315" as="targetPoint" />
          </mxGeometry>
        </mxCell>
        <mxCell id="kHURLvQLniu8-LGdCGiE-104" value="" style="edgeStyle=orthogonalEdgeStyle;fontSize=12;html=1;endArrow=ERmany;rounded=0;exitX=0.5;exitY=1;exitDx=0;exitDy=0;elbow=vertical;entryX=1;entryY=0.5;entryDx=0;entryDy=0;" edge="1" parent="1" source="kHURLvQLniu8-LGdCGiE-89" target="kHURLvQLniu8-LGdCGiE-32">
          <mxGeometry width="100" height="100" relative="1" as="geometry">
            <mxPoint x="108" y="392" as="sourcePoint" />
            <mxPoint x="85" y="332" as="targetPoint" />
          </mxGeometry>
        </mxCell>
        <mxCell id="kHURLvQLniu8-LGdCGiE-105" value="" style="fontSize=12;html=1;endArrow=ERzeroToMany;endFill=1;rounded=0;exitX=0.5;exitY=1;exitDx=0;exitDy=0;entryX=0.5;entryY=0;entryDx=0;entryDy=0;" edge="1" parent="1" source="kHURLvQLniu8-LGdCGiE-27" target="kHURLvQLniu8-LGdCGiE-32">
          <mxGeometry width="100" height="100" relative="1" as="geometry">
            <mxPoint x="41" y="427" as="sourcePoint" />
            <mxPoint x="141" y="327" as="targetPoint" />
          </mxGeometry>
        </mxCell>
        <mxCell id="kHURLvQLniu8-LGdCGiE-106" value="&lt;span style=&quot;font-weight: normal;&quot;&gt;makes&lt;/span&gt;" style="rhombus;whiteSpace=wrap;html=1;startSize=30;fontStyle=1;" vertex="1" parent="1">
          <mxGeometry x="-375" y="147" width="60" height="58" as="geometry" />
        </mxCell>
        <mxCell id="kHURLvQLniu8-LGdCGiE-108" value="&lt;span style=&quot;font-weight: normal;&quot;&gt;rental&lt;/span&gt;" style="rhombus;whiteSpace=wrap;html=1;startSize=30;fontStyle=1;" vertex="1" parent="1">
          <mxGeometry x="-229.5" y="329" width="62" height="62" as="geometry" />
        </mxCell>
        <mxCell id="kHURLvQLniu8-LGdCGiE-109" value="&lt;span style=&quot;font-weight: normal;&quot;&gt;stores&lt;/span&gt;" style="rhombus;whiteSpace=wrap;html=1;startSize=30;fontStyle=1;" vertex="1" parent="1">
          <mxGeometry x="375" y="483" width="69" height="66" as="geometry" />
        </mxCell>
        <mxCell id="kHURLvQLniu8-LGdCGiE-110" value="Car" style="shape=table;startSize=30;container=1;collapsible=1;childLayout=tableLayout;fixedRows=1;rowLines=0;fontStyle=1;align=center;resizeLast=1;html=1;fillColor=#dae8fc;strokeColor=#6c8ebf;" vertex="1" parent="1">
          <mxGeometry x="339.5" y="627" width="140" height="180" as="geometry" />
        </mxCell>
        <mxCell id="kHURLvQLniu8-LGdCGiE-111" value="" style="shape=tableRow;horizontal=0;startSize=0;swimlaneHead=0;swimlaneBody=0;fillColor=none;collapsible=0;dropTarget=0;points=[[0,0.5],[1,0.5]];portConstraint=eastwest;top=0;left=0;right=0;bottom=1;strokeColor=inherit;swimlaneLine=0;strokeWidth=0;" vertex="1" parent="kHURLvQLniu8-LGdCGiE-110">
          <mxGeometry y="30" width="140" height="30" as="geometry" />
        </mxCell>
        <mxCell id="kHURLvQLniu8-LGdCGiE-112" value="PK" style="shape=partialRectangle;connectable=0;fillColor=#dae8fc;top=0;left=0;bottom=0;right=0;fontStyle=0;overflow=hidden;whiteSpace=wrap;html=1;strokeWidth=0;strokeColor=#6c8ebf;" vertex="1" parent="kHURLvQLniu8-LGdCGiE-111">
          <mxGeometry width="30" height="30" as="geometry">
            <mxRectangle width="30" height="30" as="alternateBounds" />
          </mxGeometry>
        </mxCell>
        <mxCell id="kHURLvQLniu8-LGdCGiE-113" value="CarID" style="shape=partialRectangle;connectable=0;fillColor=#dae8fc;top=0;left=0;bottom=0;right=0;align=left;spacingLeft=6;fontStyle=4;overflow=hidden;whiteSpace=wrap;html=1;strokeColor=#6c8ebf;" vertex="1" parent="kHURLvQLniu8-LGdCGiE-111">
          <mxGeometry x="30" width="110" height="30" as="geometry">
            <mxRectangle width="110" height="30" as="alternateBounds" />
          </mxGeometry>
        </mxCell>
        <mxCell id="kHURLvQLniu8-LGdCGiE-114" value="" style="shape=tableRow;horizontal=0;startSize=0;swimlaneHead=0;swimlaneBody=0;fillColor=none;collapsible=0;dropTarget=0;points=[[0,0.5],[1,0.5]];portConstraint=eastwest;top=0;left=0;right=0;bottom=0;" vertex="1" parent="kHURLvQLniu8-LGdCGiE-110">
          <mxGeometry y="60" width="140" height="30" as="geometry" />
        </mxCell>
        <mxCell id="kHURLvQLniu8-LGdCGiE-115" value="" style="shape=partialRectangle;connectable=0;fillColor=#dae8fc;top=0;left=0;bottom=0;right=0;editable=1;overflow=hidden;whiteSpace=wrap;html=1;strokeColor=#6c8ebf;" vertex="1" parent="kHURLvQLniu8-LGdCGiE-114">
          <mxGeometry width="30" height="30" as="geometry">
            <mxRectangle width="30" height="30" as="alternateBounds" />
          </mxGeometry>
        </mxCell>
        <mxCell id="kHURLvQLniu8-LGdCGiE-116" value="Model" style="shape=partialRectangle;connectable=0;fillColor=#dae8fc;top=0;left=0;bottom=0;right=0;align=left;spacingLeft=6;overflow=hidden;whiteSpace=wrap;html=1;strokeColor=#6c8ebf;" vertex="1" parent="kHURLvQLniu8-LGdCGiE-114">
          <mxGeometry x="30" width="110" height="30" as="geometry">
            <mxRectangle width="110" height="30" as="alternateBounds" />
          </mxGeometry>
        </mxCell>
        <mxCell id="kHURLvQLniu8-LGdCGiE-117" value="" style="shape=tableRow;horizontal=0;startSize=0;swimlaneHead=0;swimlaneBody=0;fillColor=none;collapsible=0;dropTarget=0;points=[[0,0.5],[1,0.5]];portConstraint=eastwest;top=0;left=0;right=0;bottom=0;" vertex="1" parent="kHURLvQLniu8-LGdCGiE-110">
          <mxGeometry y="90" width="140" height="30" as="geometry" />
        </mxCell>
        <mxCell id="kHURLvQLniu8-LGdCGiE-118" value="" style="shape=partialRectangle;connectable=0;fillColor=#dae8fc;top=0;left=0;bottom=0;right=0;editable=1;overflow=hidden;whiteSpace=wrap;html=1;strokeColor=#6c8ebf;" vertex="1" parent="kHURLvQLniu8-LGdCGiE-117">
          <mxGeometry width="30" height="30" as="geometry">
            <mxRectangle width="30" height="30" as="alternateBounds" />
          </mxGeometry>
        </mxCell>
        <mxCell id="kHURLvQLniu8-LGdCGiE-119" value="Manufacturer" style="shape=partialRectangle;connectable=0;fillColor=#dae8fc;top=0;left=0;bottom=0;right=0;align=left;spacingLeft=6;overflow=hidden;whiteSpace=wrap;html=1;strokeColor=#6c8ebf;" vertex="1" parent="kHURLvQLniu8-LGdCGiE-117">
          <mxGeometry x="30" width="110" height="30" as="geometry">
            <mxRectangle width="110" height="30" as="alternateBounds" />
          </mxGeometry>
        </mxCell>
        <mxCell id="kHURLvQLniu8-LGdCGiE-120" value="" style="shape=tableRow;horizontal=0;startSize=0;swimlaneHead=0;swimlaneBody=0;fillColor=none;collapsible=0;dropTarget=0;points=[[0,0.5],[1,0.5]];portConstraint=eastwest;top=0;left=0;right=0;bottom=0;" vertex="1" parent="kHURLvQLniu8-LGdCGiE-110">
          <mxGeometry y="120" width="140" height="30" as="geometry" />
        </mxCell>
        <mxCell id="kHURLvQLniu8-LGdCGiE-121" value="" style="shape=partialRectangle;connectable=0;fillColor=#dae8fc;top=0;left=0;bottom=0;right=0;editable=1;overflow=hidden;whiteSpace=wrap;html=1;strokeColor=#6c8ebf;" vertex="1" parent="kHURLvQLniu8-LGdCGiE-120">
          <mxGeometry width="30" height="30" as="geometry">
            <mxRectangle width="30" height="30" as="alternateBounds" />
          </mxGeometry>
        </mxCell>
        <mxCell id="kHURLvQLniu8-LGdCGiE-122" value="Year" style="shape=partialRectangle;connectable=0;fillColor=#dae8fc;top=0;left=0;bottom=0;right=0;align=left;spacingLeft=6;overflow=hidden;whiteSpace=wrap;html=1;strokeColor=#6c8ebf;" vertex="1" parent="kHURLvQLniu8-LGdCGiE-120">
          <mxGeometry x="30" width="110" height="30" as="geometry">
            <mxRectangle width="110" height="30" as="alternateBounds" />
          </mxGeometry>
        </mxCell>
        <mxCell id="kHURLvQLniu8-LGdCGiE-123" value="" style="shape=tableRow;horizontal=0;startSize=0;swimlaneHead=0;swimlaneBody=0;fillColor=none;collapsible=0;dropTarget=0;points=[[0,0.5],[1,0.5]];portConstraint=eastwest;top=0;left=0;right=0;bottom=0;" vertex="1" parent="kHURLvQLniu8-LGdCGiE-110">
          <mxGeometry y="150" width="140" height="30" as="geometry" />
        </mxCell>
        <mxCell id="kHURLvQLniu8-LGdCGiE-124" value="" style="shape=partialRectangle;connectable=0;fillColor=#dae8fc;top=0;left=0;bottom=0;right=0;editable=1;overflow=hidden;whiteSpace=wrap;html=1;strokeColor=#6c8ebf;" vertex="1" parent="kHURLvQLniu8-LGdCGiE-123">
          <mxGeometry width="30" height="30" as="geometry">
            <mxRectangle width="30" height="30" as="alternateBounds" />
          </mxGeometry>
        </mxCell>
        <mxCell id="kHURLvQLniu8-LGdCGiE-125" value="RentalRate" style="shape=partialRectangle;connectable=0;fillColor=#dae8fc;top=0;left=0;bottom=0;right=0;align=left;spacingLeft=6;overflow=hidden;whiteSpace=wrap;html=1;strokeColor=#6c8ebf;" vertex="1" parent="kHURLvQLniu8-LGdCGiE-123">
          <mxGeometry x="30" width="110" height="30" as="geometry">
            <mxRectangle width="110" height="30" as="alternateBounds" />
          </mxGeometry>
        </mxCell>
        <mxCell id="kHURLvQLniu8-LGdCGiE-126" value="&lt;span style=&quot;font-weight: normal;&quot;&gt;belongs&lt;/span&gt;" style="rhombus;whiteSpace=wrap;html=1;startSize=30;fontStyle=1;" vertex="1" parent="1">
          <mxGeometry x="375" y="876" width="69" height="66" as="geometry" />
        </mxCell>
        <mxCell id="kHURLvQLniu8-LGdCGiE-127" value="CarCategory" style="shape=table;startSize=30;container=1;collapsible=1;childLayout=tableLayout;fixedRows=1;rowLines=0;fontStyle=1;align=center;resizeLast=1;html=1;fillColor=#dae8fc;strokeColor=#6c8ebf;" vertex="1" parent="1">
          <mxGeometry x="339.5" y="1015" width="140" height="90" as="geometry" />
        </mxCell>
        <mxCell id="kHURLvQLniu8-LGdCGiE-128" value="" style="shape=tableRow;horizontal=0;startSize=0;swimlaneHead=0;swimlaneBody=0;fillColor=none;collapsible=0;dropTarget=0;points=[[0,0.5],[1,0.5]];portConstraint=eastwest;top=0;left=0;right=0;bottom=1;strokeColor=inherit;swimlaneLine=0;strokeWidth=0;" vertex="1" parent="kHURLvQLniu8-LGdCGiE-127">
          <mxGeometry y="30" width="140" height="30" as="geometry" />
        </mxCell>
        <mxCell id="kHURLvQLniu8-LGdCGiE-129" value="PK" style="shape=partialRectangle;connectable=0;fillColor=#dae8fc;top=0;left=0;bottom=0;right=0;fontStyle=0;overflow=hidden;whiteSpace=wrap;html=1;strokeWidth=0;strokeColor=#6c8ebf;" vertex="1" parent="kHURLvQLniu8-LGdCGiE-128">
          <mxGeometry width="30" height="30" as="geometry">
            <mxRectangle width="30" height="30" as="alternateBounds" />
          </mxGeometry>
        </mxCell>
        <mxCell id="kHURLvQLniu8-LGdCGiE-130" value="CategoryID" style="shape=partialRectangle;connectable=0;fillColor=#dae8fc;top=0;left=0;bottom=0;right=0;align=left;spacingLeft=6;fontStyle=4;overflow=hidden;whiteSpace=wrap;html=1;strokeColor=#6c8ebf;" vertex="1" parent="kHURLvQLniu8-LGdCGiE-128">
          <mxGeometry x="30" width="110" height="30" as="geometry">
            <mxRectangle width="110" height="30" as="alternateBounds" />
          </mxGeometry>
        </mxCell>
        <mxCell id="kHURLvQLniu8-LGdCGiE-131" value="" style="shape=tableRow;horizontal=0;startSize=0;swimlaneHead=0;swimlaneBody=0;fillColor=none;collapsible=0;dropTarget=0;points=[[0,0.5],[1,0.5]];portConstraint=eastwest;top=0;left=0;right=0;bottom=0;" vertex="1" parent="kHURLvQLniu8-LGdCGiE-127">
          <mxGeometry y="60" width="140" height="30" as="geometry" />
        </mxCell>
        <mxCell id="kHURLvQLniu8-LGdCGiE-132" value="" style="shape=partialRectangle;connectable=0;fillColor=#dae8fc;top=0;left=0;bottom=0;right=0;editable=1;overflow=hidden;whiteSpace=wrap;html=1;strokeColor=#6c8ebf;" vertex="1" parent="kHURLvQLniu8-LGdCGiE-131">
          <mxGeometry width="30" height="30" as="geometry">
            <mxRectangle width="30" height="30" as="alternateBounds" />
          </mxGeometry>
        </mxCell>
        <mxCell id="kHURLvQLniu8-LGdCGiE-133" value="CategoryName" style="shape=partialRectangle;connectable=0;fillColor=#dae8fc;top=0;left=0;bottom=0;right=0;align=left;spacingLeft=6;overflow=hidden;whiteSpace=wrap;html=1;strokeColor=#6c8ebf;" vertex="1" parent="kHURLvQLniu8-LGdCGiE-131">
          <mxGeometry x="30" width="110" height="30" as="geometry">
            <mxRectangle width="110" height="30" as="alternateBounds" />
          </mxGeometry>
        </mxCell>
        <mxCell id="kHURLvQLniu8-LGdCGiE-144" value="" style="edgeStyle=elbowEdgeStyle;fontSize=12;html=1;endArrow=ERone;endFill=1;rounded=0;elbow=vertical;exitX=0.5;exitY=0;exitDx=0;exitDy=0;" edge="1" parent="1" source="kHURLvQLniu8-LGdCGiE-106">
          <mxGeometry width="100" height="100" relative="1" as="geometry">
            <mxPoint x="-210" y="134" as="sourcePoint" />
            <mxPoint x="-110" y="34" as="targetPoint" />
            <Array as="points">
              <mxPoint x="-208" y="34" />
            </Array>
          </mxGeometry>
        </mxCell>
        <mxCell id="kHURLvQLniu8-LGdCGiE-145" value="&lt;span style=&quot;font-weight: normal;&quot;&gt;returned&lt;/span&gt;" style="rhombus;whiteSpace=wrap;html=1;startSize=30;fontStyle=1;" vertex="1" parent="1">
          <mxGeometry x="-288.5" y="508" width="69" height="66" as="geometry" />
        </mxCell>
        <mxCell id="kHURLvQLniu8-LGdCGiE-146" value="&lt;span style=&quot;font-weight: normal;&quot;&gt;covers&lt;/span&gt;" style="rhombus;whiteSpace=wrap;html=1;startSize=30;fontStyle=1;" vertex="1" parent="1">
          <mxGeometry x="114.5" y="621" width="69" height="66" as="geometry" />
        </mxCell>
        <mxCell id="kHURLvQLniu8-LGdCGiE-147" value="&lt;span style=&quot;font-weight: normal;&quot;&gt;pickedup&lt;/span&gt;" style="rhombus;whiteSpace=wrap;html=1;startSize=30;fontStyle=1;" vertex="1" parent="1">
          <mxGeometry x="-78" y="533" width="76" height="71" as="geometry" />
        </mxCell>
        <mxCell id="kHURLvQLniu8-LGdCGiE-148" value="&lt;span style=&quot;font-weight: 400;&quot;&gt;have&lt;/span&gt;" style="rhombus;whiteSpace=wrap;html=1;startSize=30;fontStyle=1;" vertex="1" parent="1">
          <mxGeometry x="227" y="508" width="69" height="66" as="geometry" />
        </mxCell>
        <mxCell id="kHURLvQLniu8-LGdCGiE-150" value="PickupLocation" style="shape=table;startSize=30;container=1;collapsible=1;childLayout=tableLayout;fixedRows=1;rowLines=0;fontStyle=1;align=center;resizeLast=1;html=1;fillColor=#dae8fc;strokeColor=#6c8ebf;" vertex="1" parent="1">
          <mxGeometry x="-109" y="681" width="140" height="90" as="geometry" />
        </mxCell>
        <mxCell id="kHURLvQLniu8-LGdCGiE-151" value="" style="shape=tableRow;horizontal=0;startSize=0;swimlaneHead=0;swimlaneBody=0;fillColor=none;collapsible=0;dropTarget=0;points=[[0,0.5],[1,0.5]];portConstraint=eastwest;top=0;left=0;right=0;bottom=1;strokeColor=inherit;swimlaneLine=0;strokeWidth=0;" vertex="1" parent="kHURLvQLniu8-LGdCGiE-150">
          <mxGeometry y="30" width="140" height="30" as="geometry" />
        </mxCell>
        <mxCell id="kHURLvQLniu8-LGdCGiE-152" value="PK" style="shape=partialRectangle;connectable=0;fillColor=#dae8fc;top=0;left=0;bottom=0;right=0;fontStyle=0;overflow=hidden;whiteSpace=wrap;html=1;strokeWidth=0;strokeColor=#6c8ebf;" vertex="1" parent="kHURLvQLniu8-LGdCGiE-151">
          <mxGeometry width="30" height="30" as="geometry">
            <mxRectangle width="30" height="30" as="alternateBounds" />
          </mxGeometry>
        </mxCell>
        <mxCell id="kHURLvQLniu8-LGdCGiE-153" value="PickupLocationID" style="shape=partialRectangle;connectable=0;fillColor=#dae8fc;top=0;left=0;bottom=0;right=0;align=left;spacingLeft=6;fontStyle=4;overflow=hidden;whiteSpace=wrap;html=1;strokeColor=#6c8ebf;" vertex="1" parent="kHURLvQLniu8-LGdCGiE-151">
          <mxGeometry x="30" width="110" height="30" as="geometry">
            <mxRectangle width="110" height="30" as="alternateBounds" />
          </mxGeometry>
        </mxCell>
        <mxCell id="kHURLvQLniu8-LGdCGiE-154" value="" style="shape=tableRow;horizontal=0;startSize=0;swimlaneHead=0;swimlaneBody=0;fillColor=none;collapsible=0;dropTarget=0;points=[[0,0.5],[1,0.5]];portConstraint=eastwest;top=0;left=0;right=0;bottom=0;" vertex="1" parent="kHURLvQLniu8-LGdCGiE-150">
          <mxGeometry y="60" width="140" height="30" as="geometry" />
        </mxCell>
        <mxCell id="kHURLvQLniu8-LGdCGiE-155" value="" style="shape=partialRectangle;connectable=0;fillColor=#dae8fc;top=0;left=0;bottom=0;right=0;editable=1;overflow=hidden;whiteSpace=wrap;html=1;strokeColor=#6c8ebf;" vertex="1" parent="kHURLvQLniu8-LGdCGiE-154">
          <mxGeometry width="30" height="30" as="geometry">
            <mxRectangle width="30" height="30" as="alternateBounds" />
          </mxGeometry>
        </mxCell>
        <mxCell id="kHURLvQLniu8-LGdCGiE-156" value="Location" style="shape=partialRectangle;connectable=0;fillColor=#dae8fc;top=0;left=0;bottom=0;right=0;align=left;spacingLeft=6;overflow=hidden;whiteSpace=wrap;html=1;strokeColor=#6c8ebf;" vertex="1" parent="kHURLvQLniu8-LGdCGiE-154">
          <mxGeometry x="30" width="110" height="30" as="geometry">
            <mxRectangle width="110" height="30" as="alternateBounds" />
          </mxGeometry>
        </mxCell>
        <mxCell id="kHURLvQLniu8-LGdCGiE-157" value="DropoffLocation" style="shape=table;startSize=30;container=1;collapsible=1;childLayout=tableLayout;fixedRows=1;rowLines=0;fontStyle=1;align=center;resizeLast=1;html=1;fillColor=#dae8fc;strokeColor=#6c8ebf;" vertex="1" parent="1">
          <mxGeometry x="-324" y="804" width="140" height="90" as="geometry" />
        </mxCell>
        <mxCell id="kHURLvQLniu8-LGdCGiE-158" value="" style="shape=tableRow;horizontal=0;startSize=0;swimlaneHead=0;swimlaneBody=0;fillColor=none;collapsible=0;dropTarget=0;points=[[0,0.5],[1,0.5]];portConstraint=eastwest;top=0;left=0;right=0;bottom=1;strokeColor=inherit;swimlaneLine=0;strokeWidth=0;" vertex="1" parent="kHURLvQLniu8-LGdCGiE-157">
          <mxGeometry y="30" width="140" height="30" as="geometry" />
        </mxCell>
        <mxCell id="kHURLvQLniu8-LGdCGiE-159" value="PK" style="shape=partialRectangle;connectable=0;fillColor=#dae8fc;top=0;left=0;bottom=0;right=0;fontStyle=0;overflow=hidden;whiteSpace=wrap;html=1;strokeWidth=0;strokeColor=#6c8ebf;" vertex="1" parent="kHURLvQLniu8-LGdCGiE-158">
          <mxGeometry width="30" height="30" as="geometry">
            <mxRectangle width="30" height="30" as="alternateBounds" />
          </mxGeometry>
        </mxCell>
        <mxCell id="kHURLvQLniu8-LGdCGiE-160" value="DropoffLocationID" style="shape=partialRectangle;connectable=0;fillColor=#dae8fc;top=0;left=0;bottom=0;right=0;align=left;spacingLeft=6;fontStyle=4;overflow=hidden;whiteSpace=wrap;html=1;strokeColor=#6c8ebf;" vertex="1" parent="kHURLvQLniu8-LGdCGiE-158">
          <mxGeometry x="30" width="110" height="30" as="geometry">
            <mxRectangle width="110" height="30" as="alternateBounds" />
          </mxGeometry>
        </mxCell>
        <mxCell id="kHURLvQLniu8-LGdCGiE-161" value="" style="shape=tableRow;horizontal=0;startSize=0;swimlaneHead=0;swimlaneBody=0;fillColor=none;collapsible=0;dropTarget=0;points=[[0,0.5],[1,0.5]];portConstraint=eastwest;top=0;left=0;right=0;bottom=0;" vertex="1" parent="kHURLvQLniu8-LGdCGiE-157">
          <mxGeometry y="60" width="140" height="30" as="geometry" />
        </mxCell>
        <mxCell id="kHURLvQLniu8-LGdCGiE-162" value="" style="shape=partialRectangle;connectable=0;fillColor=#dae8fc;top=0;left=0;bottom=0;right=0;editable=1;overflow=hidden;whiteSpace=wrap;html=1;strokeColor=#6c8ebf;" vertex="1" parent="kHURLvQLniu8-LGdCGiE-161">
          <mxGeometry width="30" height="30" as="geometry">
            <mxRectangle width="30" height="30" as="alternateBounds" />
          </mxGeometry>
        </mxCell>
        <mxCell id="kHURLvQLniu8-LGdCGiE-163" value="Location" style="shape=partialRectangle;connectable=0;fillColor=#dae8fc;top=0;left=0;bottom=0;right=0;align=left;spacingLeft=6;overflow=hidden;whiteSpace=wrap;html=1;strokeColor=#6c8ebf;" vertex="1" parent="kHURLvQLniu8-LGdCGiE-161">
          <mxGeometry x="30" width="110" height="30" as="geometry">
            <mxRectangle width="110" height="30" as="alternateBounds" />
          </mxGeometry>
        </mxCell>
        <mxCell id="kHURLvQLniu8-LGdCGiE-164" value="Insurance" style="shape=table;startSize=30;container=1;collapsible=1;childLayout=tableLayout;fixedRows=1;rowLines=0;fontStyle=1;align=center;resizeLast=1;html=1;fillColor=#dae8fc;strokeColor=#6c8ebf;" vertex="1" parent="1">
          <mxGeometry x="79" y="886" width="140" height="120" as="geometry" />
        </mxCell>
        <mxCell id="kHURLvQLniu8-LGdCGiE-165" value="" style="shape=tableRow;horizontal=0;startSize=0;swimlaneHead=0;swimlaneBody=0;fillColor=none;collapsible=0;dropTarget=0;points=[[0,0.5],[1,0.5]];portConstraint=eastwest;top=0;left=0;right=0;bottom=1;strokeColor=inherit;swimlaneLine=0;strokeWidth=0;" vertex="1" parent="kHURLvQLniu8-LGdCGiE-164">
          <mxGeometry y="30" width="140" height="30" as="geometry" />
        </mxCell>
        <mxCell id="kHURLvQLniu8-LGdCGiE-166" value="PK" style="shape=partialRectangle;connectable=0;fillColor=#dae8fc;top=0;left=0;bottom=0;right=0;fontStyle=0;overflow=hidden;whiteSpace=wrap;html=1;strokeWidth=0;strokeColor=#6c8ebf;" vertex="1" parent="kHURLvQLniu8-LGdCGiE-165">
          <mxGeometry width="30" height="30" as="geometry">
            <mxRectangle width="30" height="30" as="alternateBounds" />
          </mxGeometry>
        </mxCell>
        <mxCell id="kHURLvQLniu8-LGdCGiE-167" value="InsuranceID" style="shape=partialRectangle;connectable=0;fillColor=#dae8fc;top=0;left=0;bottom=0;right=0;align=left;spacingLeft=6;fontStyle=4;overflow=hidden;whiteSpace=wrap;html=1;strokeColor=#6c8ebf;" vertex="1" parent="kHURLvQLniu8-LGdCGiE-165">
          <mxGeometry x="30" width="110" height="30" as="geometry">
            <mxRectangle width="110" height="30" as="alternateBounds" />
          </mxGeometry>
        </mxCell>
        <mxCell id="kHURLvQLniu8-LGdCGiE-168" value="" style="shape=tableRow;horizontal=0;startSize=0;swimlaneHead=0;swimlaneBody=0;fillColor=none;collapsible=0;dropTarget=0;points=[[0,0.5],[1,0.5]];portConstraint=eastwest;top=0;left=0;right=0;bottom=0;" vertex="1" parent="kHURLvQLniu8-LGdCGiE-164">
          <mxGeometry y="60" width="140" height="30" as="geometry" />
        </mxCell>
        <mxCell id="kHURLvQLniu8-LGdCGiE-169" value="" style="shape=partialRectangle;connectable=0;fillColor=#dae8fc;top=0;left=0;bottom=0;right=0;editable=1;overflow=hidden;whiteSpace=wrap;html=1;strokeColor=#6c8ebf;" vertex="1" parent="kHURLvQLniu8-LGdCGiE-168">
          <mxGeometry width="30" height="30" as="geometry">
            <mxRectangle width="30" height="30" as="alternateBounds" />
          </mxGeometry>
        </mxCell>
        <mxCell id="kHURLvQLniu8-LGdCGiE-170" value="PolicyNumber" style="shape=partialRectangle;connectable=0;fillColor=#dae8fc;top=0;left=0;bottom=0;right=0;align=left;spacingLeft=6;overflow=hidden;whiteSpace=wrap;html=1;strokeColor=#6c8ebf;" vertex="1" parent="kHURLvQLniu8-LGdCGiE-168">
          <mxGeometry x="30" width="110" height="30" as="geometry">
            <mxRectangle width="110" height="30" as="alternateBounds" />
          </mxGeometry>
        </mxCell>
        <mxCell id="kHURLvQLniu8-LGdCGiE-171" value="" style="shape=tableRow;horizontal=0;startSize=0;swimlaneHead=0;swimlaneBody=0;fillColor=none;collapsible=0;dropTarget=0;points=[[0,0.5],[1,0.5]];portConstraint=eastwest;top=0;left=0;right=0;bottom=0;" vertex="1" parent="kHURLvQLniu8-LGdCGiE-164">
          <mxGeometry y="90" width="140" height="30" as="geometry" />
        </mxCell>
        <mxCell id="kHURLvQLniu8-LGdCGiE-172" value="" style="shape=partialRectangle;connectable=0;fillColor=#dae8fc;top=0;left=0;bottom=0;right=0;editable=1;overflow=hidden;whiteSpace=wrap;html=1;strokeColor=#6c8ebf;" vertex="1" parent="kHURLvQLniu8-LGdCGiE-171">
          <mxGeometry width="30" height="30" as="geometry">
            <mxRectangle width="30" height="30" as="alternateBounds" />
          </mxGeometry>
        </mxCell>
        <mxCell id="kHURLvQLniu8-LGdCGiE-173" value="CoverageDetails" style="shape=partialRectangle;connectable=0;fillColor=#dae8fc;top=0;left=0;bottom=0;right=0;align=left;spacingLeft=6;overflow=hidden;whiteSpace=wrap;html=1;strokeColor=#6c8ebf;" vertex="1" parent="kHURLvQLniu8-LGdCGiE-171">
          <mxGeometry x="30" width="110" height="30" as="geometry">
            <mxRectangle width="110" height="30" as="alternateBounds" />
          </mxGeometry>
        </mxCell>
        <mxCell id="kHURLvQLniu8-LGdCGiE-174" value="" style="fontSize=12;html=1;endArrow=ERzeroToMany;endFill=1;rounded=0;exitX=0.5;exitY=1;exitDx=0;exitDy=0;entryX=0.5;entryY=0;entryDx=0;entryDy=0;" edge="1" parent="1" source="kHURLvQLniu8-LGdCGiE-106" target="kHURLvQLniu8-LGdCGiE-71">
          <mxGeometry width="100" height="100" relative="1" as="geometry">
            <mxPoint x="-337" y="231" as="sourcePoint" />
            <mxPoint x="-237" y="131" as="targetPoint" />
          </mxGeometry>
        </mxCell>
        <mxCell id="kHURLvQLniu8-LGdCGiE-175" value="" style="fontSize=12;html=1;endArrow=ERmany;rounded=0;entryX=1;entryY=0.5;entryDx=0;entryDy=0;exitX=0;exitY=0.5;exitDx=0;exitDy=0;" edge="1" parent="1" source="kHURLvQLniu8-LGdCGiE-108" target="kHURLvQLniu8-LGdCGiE-72">
          <mxGeometry width="100" height="100" relative="1" as="geometry">
            <mxPoint x="41" y="530" as="sourcePoint" />
            <mxPoint x="141" y="430" as="targetPoint" />
          </mxGeometry>
        </mxCell>
        <mxCell id="kHURLvQLniu8-LGdCGiE-176" value="" style="edgeStyle=elbowEdgeStyle;fontSize=12;html=1;endArrow=ERone;endFill=1;rounded=0;entryX=0;entryY=0.5;entryDx=0;entryDy=0;exitX=1;exitY=0.5;exitDx=0;exitDy=0;" edge="1" parent="1" source="kHURLvQLniu8-LGdCGiE-108" target="kHURLvQLniu8-LGdCGiE-42">
          <mxGeometry width="100" height="100" relative="1" as="geometry">
            <mxPoint x="-229.5" y="535" as="sourcePoint" />
            <mxPoint x="-129.5" y="435" as="targetPoint" />
          </mxGeometry>
        </mxCell>
        <mxCell id="kHURLvQLniu8-LGdCGiE-177" value="" style="edgeStyle=elbowEdgeStyle;fontSize=12;html=1;endArrow=ERone;endFill=1;rounded=0;entryX=0;entryY=0.5;entryDx=0;entryDy=0;exitX=0.5;exitY=0;exitDx=0;exitDy=0;elbow=horizontal;" edge="1" parent="1" source="kHURLvQLniu8-LGdCGiE-145" target="kHURLvQLniu8-LGdCGiE-32">
          <mxGeometry width="100" height="100" relative="1" as="geometry">
            <mxPoint x="-220" y="474" as="sourcePoint" />
            <mxPoint x="-120" y="374" as="targetPoint" />
            <Array as="points">
              <mxPoint x="-158" y="440" />
            </Array>
          </mxGeometry>
        </mxCell>
        <mxCell id="kHURLvQLniu8-LGdCGiE-178" value="" style="fontSize=12;html=1;endArrow=ERmany;rounded=0;exitX=0.5;exitY=1;exitDx=0;exitDy=0;entryX=0.5;entryY=0;entryDx=0;entryDy=0;" edge="1" parent="1" source="kHURLvQLniu8-LGdCGiE-145" target="kHURLvQLniu8-LGdCGiE-157">
          <mxGeometry width="100" height="100" relative="1" as="geometry">
            <mxPoint x="-299" y="709" as="sourcePoint" />
            <mxPoint x="-199" y="609" as="targetPoint" />
          </mxGeometry>
        </mxCell>
        <mxCell id="kHURLvQLniu8-LGdCGiE-179" value="" style="fontSize=12;html=1;endArrow=ERmany;rounded=0;exitX=0.5;exitY=1;exitDx=0;exitDy=0;entryX=0.5;entryY=0;entryDx=0;entryDy=0;" edge="1" parent="1" source="kHURLvQLniu8-LGdCGiE-147" target="kHURLvQLniu8-LGdCGiE-150">
          <mxGeometry width="100" height="100" relative="1" as="geometry">
            <mxPoint x="41" y="817" as="sourcePoint" />
            <mxPoint x="141" y="717" as="targetPoint" />
          </mxGeometry>
        </mxCell>
        <mxCell id="kHURLvQLniu8-LGdCGiE-181" value="" style="edgeStyle=orthogonalEdgeStyle;fontSize=12;html=1;endArrow=ERmany;rounded=0;entryX=0.098;entryY=0.967;entryDx=0;entryDy=0;entryPerimeter=0;exitX=0.5;exitY=0;exitDx=0;exitDy=0;" edge="1" parent="1" source="kHURLvQLniu8-LGdCGiE-146" target="kHURLvQLniu8-LGdCGiE-42">
          <mxGeometry width="100" height="100" relative="1" as="geometry">
            <mxPoint x="-199" y="562" as="sourcePoint" />
            <mxPoint x="-99" y="462" as="targetPoint" />
            <Array as="points">
              <mxPoint x="149" y="482" />
              <mxPoint x="-96" y="482" />
            </Array>
          </mxGeometry>
        </mxCell>
        <mxCell id="kHURLvQLniu8-LGdCGiE-182" value="" style="fontSize=12;html=1;endArrow=ERone;endFill=1;rounded=0;exitX=0.5;exitY=1;exitDx=0;exitDy=0;entryX=0.5;entryY=0;entryDx=0;entryDy=0;" edge="1" parent="1" source="kHURLvQLniu8-LGdCGiE-146" target="kHURLvQLniu8-LGdCGiE-164">
          <mxGeometry width="100" height="100" relative="1" as="geometry">
            <mxPoint x="41" y="760" as="sourcePoint" />
            <mxPoint x="141" y="660" as="targetPoint" />
          </mxGeometry>
        </mxCell>
        <mxCell id="kHURLvQLniu8-LGdCGiE-183" value="" style="fontSize=12;html=1;endArrow=ERone;endFill=1;rounded=0;exitX=0.5;exitY=0;exitDx=0;exitDy=0;entryX=0.5;entryY=1;entryDx=0;entryDy=0;" edge="1" parent="1" source="kHURLvQLniu8-LGdCGiE-147" target="kHURLvQLniu8-LGdCGiE-32">
          <mxGeometry width="100" height="100" relative="1" as="geometry">
            <mxPoint x="41" y="713" as="sourcePoint" />
            <mxPoint x="68" y="472" as="targetPoint" />
          </mxGeometry>
        </mxCell>
        <mxCell id="kHURLvQLniu8-LGdCGiE-185" value="" style="edgeStyle=orthogonalEdgeStyle;fontSize=12;html=1;endArrow=ERmany;rounded=0;entryX=1;entryY=0.5;entryDx=0;entryDy=0;exitX=0.5;exitY=0;exitDx=0;exitDy=0;" edge="1" parent="1" source="kHURLvQLniu8-LGdCGiE-148" target="kHURLvQLniu8-LGdCGiE-42">
          <mxGeometry width="100" height="100" relative="1" as="geometry">
            <mxPoint x="41" y="599" as="sourcePoint" />
            <mxPoint x="141" y="499" as="targetPoint" />
            <Array as="points">
              <mxPoint x="262" y="468" />
              <mxPoint x="261" y="435" />
            </Array>
          </mxGeometry>
        </mxCell>
        <mxCell id="kHURLvQLniu8-LGdCGiE-188" value="" style="edgeStyle=orthogonalEdgeStyle;fontSize=12;html=1;endArrow=ERone;endFill=1;rounded=0;entryX=0;entryY=0.5;entryDx=0;entryDy=0;exitX=0.5;exitY=1;exitDx=0;exitDy=0;" edge="1" parent="1" source="kHURLvQLniu8-LGdCGiE-148" target="kHURLvQLniu8-LGdCGiE-114">
          <mxGeometry width="100" height="100" relative="1" as="geometry">
            <mxPoint x="261" y="587" as="sourcePoint" />
            <mxPoint x="141" y="499" as="targetPoint" />
            <Array as="points">
              <mxPoint x="262" y="599" />
              <mxPoint x="261" y="702" />
            </Array>
          </mxGeometry>
        </mxCell>
        <mxCell id="kHURLvQLniu8-LGdCGiE-189" value="" style="fontSize=12;html=1;endArrow=ERone;endFill=1;rounded=0;entryX=0.506;entryY=1.067;entryDx=0;entryDy=0;entryPerimeter=0;exitX=0.5;exitY=0;exitDx=0;exitDy=0;" edge="1" parent="1" source="kHURLvQLniu8-LGdCGiE-109" target="kHURLvQLniu8-LGdCGiE-97">
          <mxGeometry width="100" height="100" relative="1" as="geometry">
            <mxPoint x="41" y="599" as="sourcePoint" />
            <mxPoint x="141" y="499" as="targetPoint" />
          </mxGeometry>
        </mxCell>
        <mxCell id="kHURLvQLniu8-LGdCGiE-190" value="" style="fontSize=12;html=1;endArrow=ERmany;rounded=0;exitX=0.5;exitY=1;exitDx=0;exitDy=0;entryX=0.5;entryY=0;entryDx=0;entryDy=0;" edge="1" parent="1" source="kHURLvQLniu8-LGdCGiE-109" target="kHURLvQLniu8-LGdCGiE-110">
          <mxGeometry width="100" height="100" relative="1" as="geometry">
            <mxPoint x="41" y="829" as="sourcePoint" />
            <mxPoint x="141" y="729" as="targetPoint" />
          </mxGeometry>
        </mxCell>
        <mxCell id="kHURLvQLniu8-LGdCGiE-191" value="" style="edgeStyle=orthogonalEdgeStyle;fontSize=12;html=1;endArrow=ERoneToMany;rounded=0;entryX=0.101;entryY=1.011;entryDx=0;entryDy=0;entryPerimeter=0;exitX=0.5;exitY=0;exitDx=0;exitDy=0;" edge="1" parent="1" source="kHURLvQLniu8-LGdCGiE-126" target="kHURLvQLniu8-LGdCGiE-123">
          <mxGeometry width="100" height="100" relative="1" as="geometry">
            <mxPoint x="41" y="829" as="sourcePoint" />
            <mxPoint x="354" y="808" as="targetPoint" />
            <Array as="points">
              <mxPoint x="354" y="876" />
            </Array>
          </mxGeometry>
        </mxCell>
        <mxCell id="kHURLvQLniu8-LGdCGiE-192" value="" style="fontSize=12;html=1;endArrow=ERone;endFill=1;rounded=0;entryX=0.5;entryY=0;entryDx=0;entryDy=0;exitX=0.5;exitY=1;exitDx=0;exitDy=0;" edge="1" parent="1" source="kHURLvQLniu8-LGdCGiE-126" target="kHURLvQLniu8-LGdCGiE-127">
          <mxGeometry width="100" height="100" relative="1" as="geometry">
            <mxPoint x="41" y="829" as="sourcePoint" />
            <mxPoint x="141" y="729" as="targetPoint" />
          </mxGeometry>
        </mxCell>
      </root>
    </mxGraphModel>
  </diagram>
</mxfile>
